# xmcd CD database file
#
# Track frame offsets:
#	150
#	15063
#	29223
#	42260
#	54504
#	71075
#	88481
#	99172
#	118652
#	130799
#	143756
#	159124
#	172036
#	184780
#	203869
#
# Disc length: 2907 seconds
#
# Revision: 0
# Processed by: cddbd v1.5.2PL0 Copyright (c) Steve Scherf et al.
# Submitted via: CDex 1.51
#
DISCID=ca0b590f
DTITLE=Various Artist - Souvenirs
DYEAR=1900
DGENRE=Country
TTITLE0=Tiny Bubbles - Billy Forrest
TTITLE1=Special Angel - Sally Vaughn
TTITLE2=Rosa Lief - Lain Shaw
TTITLE3=Hello Operator - Billy Forrest
TTITLE4=Glory Glory Hallelujah - Sally Vaughn
TTITLE5=Stille Rivierstroom - Lain Shaw
TTITLE6=Adios Amigo - Billy Forrest
TTITLE7=Piece Of My Heart - Sally Vaughn
TTITLE8=Jy Is My Liefling - Lain Shaw
TTITLE9=Am I Losing You - Billy Forrest
TTITLE10=He Talks To Me - Sally Vaughn
TTITLE11=Groenkoringlande - Billy Forrest and Lain Shaw
TTITLE12=Hands - Billy Forrest
TTITLE13=Only Love Can Show The Way - Sally Vaughn and Billy Forrest
TTITLE14=Duisendmaal - Lain Shaw
EXTD=
EXTT0=
EXTT1=
EXTT2=
EXTT3=
EXTT4=
EXTT5=
EXTT6=
EXTT7=
EXTT8=
EXTT9=
EXTT10=
EXTT11=
EXTT12=
EXTT13=
EXTT14=
PLAYORDER=
